<?xml version="1.0"?>
<svg xmlns="http://www.w3.org/2000/svg" xmlns:xlink="http://www.w3.org/1999/xlink" xmlns:svgjs="http://svgjs.com/svgjs" version="1.1" width="512" height="512" x="0" y="0" viewBox="0 0 512 512" style="enable-background:new 0 0 512 512" xml:space="preserve"><g><g xmlns="http://www.w3.org/2000/svg"><path d="m502 43.391h-201c-5.523 0-10 4.477-10 10s4.477 10 10 10h191v71.322h-472v-71.322h191c5.523 0 10-4.477 10-10s-4.477-10-10-10h-201c-5.523 0-10 4.477-10 10v405.219c0 5.523 4.477 10 10 10h492c5.523 0 10-4.477 10-10v-405.219c0-5.523-4.477-10-10-10zm-482 405.218v-293.896h472v293.896z" fill="#ffffff" data-original="#000000" style=""/><circle cx="256" cy="53.39" r="10" fill="#ffffff" data-original="#000000" style=""/><circle cx="64.188" cy="99.052" r="10" fill="#ffffff" data-original="#000000" style=""/><circle cx="104.188" cy="99.052" r="10" fill="#ffffff" data-original="#000000" style=""/><circle cx="144.188" cy="99.052" r="10" fill="#ffffff" data-original="#000000" style=""/><path d="m182.233 312.69h-4.863c.175-28.803.282-60.809-.071-65.042-.669-8.02-5.396-14.533-12.043-16.591-3.143-.973-11.277-2.233-18.872 7.083-6.64 8.146-39.679 67.837-46.235 79.72-1.709 3.098-1.654 6.868.145 9.915 1.799 3.046 5.073 4.916 8.611 4.916h48.327c-.062 8.641-.128 16.959-.191 24.377-.048 5.523 4.391 10.039 9.913 10.086h.088c5.482 0 9.95-4.421 9.998-9.914.038-4.429.114-13.467.195-24.55h4.997c5.523 0 10-4.477 10-10 .001-5.522-4.476-10-9.999-10zm-24.868 0h-31.475c11.555-20.72 24.665-43.798 31.621-55.201.067 11.455-.013 32.962-.146 55.201z" fill="#ffffff" data-original="#000000" style=""/><path d="m403.093 312.69h-4.863c.175-28.803.282-60.809-.071-65.042-.668-8.02-5.395-14.533-12.042-16.591-3.144-.973-11.277-2.233-18.872 7.083-6.64 8.146-39.679 67.837-46.234 79.72-1.709 3.098-1.654 6.868.145 9.915 1.799 3.046 5.073 4.916 8.611 4.916h48.327c-.062 8.641-.128 16.959-.191 24.377-.048 5.523 4.391 10.039 9.913 10.086h.088c5.482 0 9.95-4.421 9.998-9.914.038-4.429.114-13.467.195-24.55h4.997c5.523 0 10-4.477 10-10-.001-5.522-4.478-10-10.001-10zm-24.868 0h-31.475c11.555-20.72 24.665-43.799 31.621-55.202.067 11.455-.013 32.96-.146 55.202z" fill="#ffffff" data-original="#000000" style=""/><path d="m256 231.403c-24.133 0-43.767 19.634-43.767 43.767v54.001c0 24.133 19.634 43.767 43.767 43.767s43.767-19.634 43.767-43.767v-54.001c0-24.133-19.634-43.767-43.767-43.767zm23.767 97.768c0 13.105-10.662 23.767-23.767 23.767s-23.767-10.662-23.767-23.767v-54.001c0-13.105 10.662-23.767 23.767-23.767s23.767 10.662 23.767 23.767z" fill="#ffffff" data-original="#000000" style=""/></g></g></svg>
