<?xml version="1.0" encoding="utf-8"?>
<!-- Generator: Adobe Illustrator 25.2.1, SVG Export Plug-In . SVG Version: 6.00 Build 0)  -->
<svg version="1.1" id="Layer_1" xmlns:svgjs="http://svgjs.com/svgjs"
	 xmlns="http://www.w3.org/2000/svg" xmlns:xlink="http://www.w3.org/1999/xlink" x="0px" y="0px" viewBox="0 0 512 512"
	 style="enable-background:new 0 0 512 512;" xml:space="preserve">
<style type="text/css">
	.st0{fill:#FFFFFF;}
</style>
<g>
	<g>
		<g>
			<path class="st0" d="M137.5,83h-0.1c-5.5,0-10,4.5-10,10s4.5,10,10,10h0.1c5.5,0,10-4.5,10-10S143,83,137.5,83z"/>
		</g>
	</g>
	<g>
		<g>
			<path class="st0" d="M425.6,151L286.2,290.4c-16.7,16.7-43.8,16.7-60.4,0L38.5,103.1c0.5,0,1-0.1,1.5-0.1h53c5.5,0,10-4.5,10-10
				s-4.5-10-10-10H40c-22.1,0-40,17.9-40,40v266c0,22.1,17.9,40,40,40h432c22.1,0,40-17.9,40-40V123c0-22.1-17.9-40-40-40H182.1
				c-5.5,0-10,4.5-10,10s4.5,10,10,10H472c0.5,0,1,0,1.5,0.1L445.6,131L425.6,151z M20,389V123c0-3,0.7-5.8,1.8-8.3L161,253.9
				L20.7,394.2C20.3,392.5,20,390.8,20,389z M472,409H40c-1.8,0-3.5-0.3-5.2-0.7L175.1,268l36.5,36.5c12.2,12.2,28.3,18.3,44.3,18.3
				s32.1-6.1,44.3-18.3l36.5-36.5l140.3,140.3C475.5,408.8,473.8,409,472,409z M492,389c0,1.8-0.3,3.5-0.7,5.2L351,253.9
				l139.2-139.2c1.2,2.5,1.8,5.3,1.8,8.3V389z"/>
		</g>
	</g>
</g>
</svg>
