<?xml version="1.0" encoding="utf-8"?>
<!-- Generator: Adobe Illustrator 24.0.2, SVG Export Plug-In . SVG Version: 6.00 Build 0)  -->
<svg version="1.1" id="Слой_1" xmlns:svgjs="http://svgjs.com/svgjs"
	 xmlns="http://www.w3.org/2000/svg" xmlns:xlink="http://www.w3.org/1999/xlink" x="0px" y="0px" viewBox="0 0 512 512"
	 style="enable-background:new 0 0 512 512;" xml:space="preserve">
<style type="text/css">
	.st0{fill:#E40E18;}
	.st1{display:none;fill:#E40E18;}
</style>
<g>
	<g>
		<g>
			<g>
				<path class="st0" d="M256,0C114.8,0,0,114.8,0,256s114.8,256,256,256s256-114.8,256-256S397.2,0,256,0z M256,489.7
					C127.1,489.7,22.3,384.9,22.3,256S127.1,22.3,256,22.3S489.7,127.1,489.7,256S384.9,489.7,256,489.7z"/>
				<path class="st0" d="M256,200.3c30.7,0,55.7-25,55.7-55.7S286.7,89,256,89s-55.7,25-55.7,55.7
					C200.3,175.4,225.3,200.3,256,200.3z M256,111.3c18.4,0,33.4,15,33.4,33.4s-15,33.4-33.4,33.4s-33.4-15-33.4-33.4
					C222.6,126.3,237.6,111.3,256,111.3z"/>
			</g>
		</g>
	</g>
</g>
<path class="st1" d="M167,389.6c0,18.4,15,33.4,33.4,33.4h111.3c18.4,0,33.4-15,33.4-33.4c0-18.4-15-33.4-33.4-33.4h-11.1v-66.8
	h11.1c18.4,0,33.4-15,33.4-33.4s-15-33.4-33.4-33.4h-89c-6.1,0-11.1,5-11.1,11.1v122.4h-11.1C181.9,356.2,167,371.2,167,389.6z
	 M189.2,389.6c0-6.1,5-11.1,11.1-11.1h22.3c6.1,0,11.1-5,11.1-11.1V244.9h77.9c6.1,0,11.1,5,11.1,11.1s-5,11.1-11.1,11.1h-22.3
	c-6.1,0-11.1,5-11.1,11.1v89c0,6.1,5,11.1,11.1,11.1h22.3c6.1,0,11.1,5,11.1,11.1c0,6.1-5,11.1-11.1,11.1l-111.3,0
	C194.2,400.7,189.2,395.7,189.2,389.6z"/>
<path class="st1" d="M226.1,423h43.5l0.8-22.3h-43.1L226.1,423z M300.5,356.2V233.7c0-6.1-5-11.1-11.1-11.1h-60.8l9.6,22.3h40v122.4
	L300.5,356.2z"/>
<path class="st0" d="M294.4,222.6h-6h-64.7h-6c-6.1,0-11.1,5-11.1,11.1v55.7v66.8v55.7c0,6.1,5,11.1,11.1,11.1h6h64.7h6
	c6.1,0,11.1-5,11.1-11.1v-55.7v-66.8v-55.7C305.5,227.6,300.5,222.6,294.4,222.6z M283.3,367.3v33.4h-4.5v0h-50v-33.4v-89v-33.4h50
	v0h4.5v33.4V367.3z"/>
</svg>
