<?xml version="1.0"?>
<svg xmlns="http://www.w3.org/2000/svg" xmlns:xlink="http://www.w3.org/1999/xlink" xmlns:svgjs="http://svgjs.com/svgjs" version="1.1" width="512" height="512" x="0" y="0" viewBox="0 0 511.572 511.572" style="enable-background:new 0 0 512 512" xml:space="preserve"><g><g xmlns="http://www.w3.org/2000/svg"><path d="m511.572 255.786c0-54.056-13.838-100.399-42.304-141.677-3.136-4.546-9.363-5.69-13.91-2.555s-5.69 9.363-2.555 13.91c5.463 7.922 10.331 16.058 14.625 24.424-32.79-11.006-66.223-19.403-100.119-25.16-17.953-39.91-44.041-74.974-76.526-101.943 36.077 5.646 71.99 19.7 102.222 40.436 1.729 1.186 3.698 1.754 5.647 1.754 3.186 0 6.317-1.519 8.255-4.345 3.124-4.554 1.964-10.779-2.59-13.903-43.294-29.696-97.431-46.727-148.53-46.727-.299 0-.597.01-.896.011-.047.002-.093-.001-.139.002-67.937.268-131.767 26.838-179.834 74.905-48.312 48.311-74.918 112.545-74.918 180.868 0 54.173 13.892 100.653 42.47 142.094 1.94 2.813 5.064 4.324 8.241 4.324 1.957 0 3.936-.574 5.668-1.769 4.546-3.135 5.69-9.363 2.555-13.91-5.828-8.452-10.986-17.141-15.49-26.093 32.837 11.062 66.321 19.507 100.27 25.303 18.212 40.522 44.808 76.054 77.972 103.195-36.412-5.541-72.672-19.633-103.119-40.516-4.555-3.124-10.779-1.965-13.903 2.59-3.124 4.554-1.964 10.779 2.59 13.903 43.236 29.656 97.374 46.664 148.531 46.665h.001c68.323 0 132.556-26.607 180.867-74.918 48.313-48.311 74.919-112.545 74.919-180.868zm-491.332-10.507c1.066-24.476 5.854-48.278 14.089-70.758 32.886-12.009 66.478-21.29 100.584-27.791-11.295 31.333-17.65 64.686-18.701 98.549zm137.585-102.48c29.027-4.45 58.387-6.911 87.961-7.364v109.844h-109.567c1.171-35.443 8.529-70.262 21.606-102.48zm107.961-7.364c29.42.45 58.629 2.889 87.508 7.295 12.881 31.761 20.377 66.535 21.551 102.549h-109.059zm-20-20.002c-26.228.39-52.295 2.305-78.119 5.746.397-.784.79-1.57 1.194-2.349 19.08-36.817 45.471-67.798 76.925-90.504zm0 149.846v109.844c-29.603-.453-58.992-2.918-88.046-7.377-12.861-31.739-20.344-66.485-21.517-102.468h109.563zm20 129.847c26.046-.387 51.931-2.28 77.578-5.676-.385.76-.766 1.523-1.159 2.28-18.978 36.619-45.189 67.463-76.42 90.135v-86.739zm0-20.002v-109.845h109.062c-1.172 35.474-8.542 70.321-21.639 102.562-28.852 4.398-58.031 6.833-87.423 7.283zm129.069-109.845h96.514c-.96 24.406-5.606 48.155-13.691 70.599-33.198 12.15-67.118 21.515-101.56 28.05 11.318-31.362 17.685-64.75 18.737-98.649zm83.434-90.376c7.825 21.798 12.152 45.146 13.084 70.377h-96.516c-1.052-34.351-7.523-67.678-18.686-98.639 34.634 6.573 68.742 16.009 102.118 28.262zm-134.831-53.782c-25.678-3.404-51.595-5.301-77.672-5.688v-86.75c32.455 23.525 58.923 55.418 77.672 92.438zm-254.397-32.061c36.107-36.107 81.862-59.058 131.452-66.452-28.023 23.235-51.679 52.808-69.409 87.019-2.585 4.987-5.023 10.055-7.331 15.186-33.376 5.695-66.304 13.943-98.608 24.728 11.165-22.078 25.894-42.479 43.896-60.481zm-56.215 246.436c-7.651-21.771-11.853-45.064-12.688-70.217h96.053c1.051 34.314 7.508 67.606 18.649 98.539-34.6-6.598-68.672-16.055-102.014-28.322zm134.728 53.872c25.855 3.449 51.952 5.368 78.212 5.758v87.117c-32.706-23.574-59.363-55.632-78.212-92.875zm121.378 99.89c28.722-23.43 52.945-53.466 71.011-88.325 2.569-4.957 4.993-9.992 7.288-15.091 33.773-5.733 67.087-14.086 99.762-25.029-11.236 22.545-26.169 43.368-44.501 61.7-36.618 36.617-83.161 59.692-133.56 66.745z" fill="#ffffff" data-original="#000000" style=""/><ellipse cx="430.117" cy="87.03" rx="10.136" ry="10.135" transform="matrix(.987 -.16 .16 .987 -8.387 70.021)" fill="#ffffff" data-original="#000000" style=""/><circle cx="80.161" cy="426.036" r="10" fill="#ffffff" data-original="#000000" style=""/></g></g></svg>
