<?xml version="1.0" encoding="utf-8"?>
<!-- Generator: Adobe Illustrator 25.2.1, SVG Export Plug-In . SVG Version: 6.00 Build 0)  -->
<svg version="1.1" id="Layer_1" xmlns:svgjs="http://svgjs.com/svgjs"
	 xmlns="http://www.w3.org/2000/svg" xmlns:xlink="http://www.w3.org/1999/xlink" x="0px" y="0px" viewBox="0 0 512 512"
	 style="enable-background:new 0 0 512 512;" xml:space="preserve">
<style type="text/css">
	.st0{fill:#FFFFFF;}
	.st1{display:none;fill:#FFFFFF;}
</style>
<g>
	<path class="st0" d="M501.9,453.3L380.2,331.6c25.6-35.7,39.1-77.6,39.1-121.9C419.3,94.1,325.3,0,209.7,0S0,94.1,0,209.7
		c0,115.6,94.1,209.7,209.7,209.7c44.3,0,86.3-13.5,121.9-39.1l121.7,121.7c6.5,6.5,15.1,10.1,24.3,10.1c9.2,0,17.8-3.6,24.3-10.1
		C515.3,488.5,515.3,466.7,501.9,453.3z M487.5,487.5c-2.6,2.6-6.2,4.1-9.9,4.1s-7.3-1.5-9.9-4.1l-128-128c-2-2-4.6-3-7.2-3
		c-2.2,0-4.4,0.7-6.3,2.2c-33.6,26.3-73.9,40.2-116.6,40.2c-104.4,0-189.3-84.9-189.3-189.3S105.3,20.4,209.7,20.4
		s189.3,84.9,189.3,189.3c0,42.7-13.9,83-40.2,116.6c-3.2,4.1-2.8,9.9,0.8,13.5l128,128C493,473.2,493,482,487.5,487.5z"/>
	<path class="st1" d="M373.1,209.7L373.1,209.7L373.1,209.7C373.1,209.6,373.1,209.6,373.1,209.7c0-74.7-50.3-137.7-118.7-157.2
		c-0.1,0-0.3-0.1-0.4-0.1c-8.2-2.3-16.6-4-25.2-5c-1.9-0.2-3.8-0.4-5.7-0.6c-4.4-0.4-8.9-0.5-13.4-0.5s-9,0.2-13.4,0.5
		c-1.9,0.2-3.8,0.4-5.7,0.6c-8.6,1-17,2.7-25.2,5c-0.1,0-0.3,0.1-0.4,0.1C96.5,71.9,46.2,135,46.2,209.7
		c0,90.1,73.3,163.4,163.4,163.4S373.1,299.8,373.1,209.7L373.1,209.7z M209.7,352.7c-78.9,0-143-64.2-143-143
		c0-78.9,64.2-143,143-143c78.9,0,143,64.2,143,143C352.7,288.5,288.5,352.7,209.7,352.7z"/>
</g>
</svg>
