<?xml version="1.0" encoding="utf-8"?>
<!-- Generator: Adobe Illustrator 25.2.1, SVG Export Plug-In . SVG Version: 6.00 Build 0)  -->
<svg version="1.1" id="Layer_1" xmlns:svgjs="http://svgjs.com/svgjs"
	 xmlns="http://www.w3.org/2000/svg" xmlns:xlink="http://www.w3.org/1999/xlink" x="0px" y="0px" viewBox="0 0 512 512"
	 style="enable-background:new 0 0 512 512;" xml:space="preserve">
<style type="text/css">
	.st0{fill:#FFFFFF;}
</style>
<g>
	<g>
		<g>
			<path class="st0" d="M256,126c-71.7,0-130,58.3-130,130s58.3,130,130,130s130-58.3,130-130S327.7,126,256,126z M256,366
				c-60.7,0-110-49.3-110-110s49.3-110,110-110s110,49.3,110,110S316.7,366,256,366z"/>
		</g>
	</g>
	<g>
		<g>
			<path class="st0" d="M510.2,250.2c-1.2-1.7-29.5-41.4-74.8-81.7C385.5,124.2,322.7,86,256,86c-66.7,0-129.5,38.2-179.4,82.5
				c-45.3,40.3-73.6,80-74.8,81.7c-2.5,3.5-2.5,8.1,0,11.6c1.2,1.7,29.5,41.4,74.8,81.7C126.5,387.8,189.3,426,256,426
				c31.8,0,65.1-8.8,98.9-26.1c26.7-13.7,53.7-32.6,80.4-56.4c45.3-40.3,73.6-80,74.8-81.7C512.6,258.3,512.6,253.7,510.2,250.2z
				 M256,406c-65.2,0-126.1-42-165.7-77.2c-33.8-30-58.3-60.4-67.8-72.8C44.1,227.8,144.1,106,256,106c65.2,0,126.1,42,165.7,77.2
				c33.8,30,58.3,60.4,67.8,72.8C467.9,284.2,367.9,406,256,406z"/>
		</g>
	</g>
</g>
</svg>
