<?xml version="1.0"?>
<svg xmlns="http://www.w3.org/2000/svg" xmlns:xlink="http://www.w3.org/1999/xlink" xmlns:svgjs="http://svgjs.com/svgjs" version="1.1" width="512" height="512" x="0" y="0" viewBox="0 0 512 512" style="enable-background:new 0 0 512 512" xml:space="preserve" class=""><g><g xmlns="http://www.w3.org/2000/svg"><g><path d="m313.964 339.987c-13.334-8.188-30.743-5.697-41.399 5.924-11.888 12.963-23.046 19.381-34.11 19.619-10.435.256-21.342-5.305-32.473-16.437l-31.415-31.416c-11.132-11.132-16.662-22.058-16.438-32.474.239-11.064 6.657-22.222 19.619-34.109 11.62-10.656 14.111-28.067 5.925-41.399-23.254-37.867-53.243-61.019-74.306-73.772-12.993-7.869-29.588-5.836-40.357 4.936l-31.41 31.409c-17.582 17.582-26.306 38.339-25.929 61.694.892 55.375 53.229 105.818 56.882 109.27l25.247 25.247c3.906 3.904 10.236 3.904 14.143 0 3.905-3.905 3.905-10.237 0-14.143l-25.354-25.353c-.072-.072-.151-.148-.227-.219-.499-.47-49.965-47.533-50.695-95.18-.275-17.96 6.291-33.392 20.075-47.175l31.41-31.409c4.243-4.244 10.763-5.054 15.855-1.97 15.694 9.504 45.349 30.862 67.622 67.132 3.185 5.187 2.176 11.996-2.399 16.192-16.958 15.553-25.738 31.843-26.097 48.418-.348 16.08 7.152 31.909 22.29 47.048l31.415 31.416c15.138 15.138 30.938 22.659 47.048 22.29 16.575-.358 32.865-9.139 48.418-26.098 4.195-4.574 11.005-5.585 16.193-2.398 36.268 22.271 57.627 51.927 67.132 67.621 3.083 5.092 2.272 11.613-1.971 15.856l-31.41 31.409c-13.784 13.783-29.228 20.308-47.175 20.075-47.646-.731-94.709-50.196-95.174-50.69-.073-.078-.147-.155-.224-.231l-24.597-24.597c-3.906-3.904-10.236-3.904-14.143 0-3.905 3.905-3.905 10.237 0 14.143l24.49 24.49c3.452 3.652 53.895 55.988 109.27 56.882.484.008.965.012 1.447.012 22.765-.001 43.029-8.724 60.247-25.94l31.41-31.41c10.771-10.772 12.801-27.368 4.936-40.357-12.753-21.064-35.906-51.053-73.771-74.306z" fill="#111111" data-original="#000000" style="" class=""/><path d="m367.566 0c-73.213 0-132.775 59.563-132.775 132.774 0 29.19 9.227 56.733 26.719 79.885v59.696c0 6.871 7.101 11.794 13.545 9.351l56.028-21.238c11.826 3.374 24.081 5.082 36.483 5.082 73.212 0 132.774-59.563 132.774-132.775.001-73.212-59.562-132.775-132.774-132.775zm0 245.55c-11.549 0-22.941-1.74-33.86-5.174-2.141-.671-4.445-.606-6.544.189l-45.652 17.305v-48.255c.088-2.374-.672-4.722-2.174-6.604-16.058-20.142-24.545-44.429-24.545-70.236 0-62.184 50.591-112.775 112.775-112.775s112.774 50.591 112.774 112.774c.001 62.185-50.59 112.776-112.774 112.776z" fill="#111111" data-original="#000000" style="" class=""/><path d="m368.885 61.263c-5.522 0-10 4.478-10 10l-.001 75.68c0 5.522 4.477 10 10 10 5.522 0 10-4.478 10-10l.001-75.68c0-5.523-4.477-10-10-10z" fill="#111111" data-original="#000000" style="" class=""/><path d="m378.12 189.04c-2.095-5.033-8.022-7.491-13.061-5.41s-7.487 8.029-5.41 13.06c2.079 5.035 8.029 7.501 13.061 5.41 5.043-2.096 7.48-8.015 5.41-13.06z" fill="#111111" data-original="#000000" style="" class=""/><path d="m140.88 388.359c-2.096-5.028-8.017-7.5-13.061-5.409-5.028 2.084-7.501 8.026-5.409 13.06 2.09 5.03 8.024 7.501 13.06 5.41 5.025-2.087 7.505-8.028 5.41-13.061z" fill="#111111" data-original="#000000" style="" class=""/></g></g></g></svg>
