<?xml version="1.0"?>
<svg xmlns="http://www.w3.org/2000/svg" xmlns:xlink="http://www.w3.org/1999/xlink" xmlns:svgjs="http://svgjs.com/svgjs" version="1.1" width="512" height="512" x="0" y="0" viewBox="0 0 512.001 512.001" style="enable-background:new 0 0 512 512" xml:space="preserve" class=""><g>
<g xmlns="http://www.w3.org/2000/svg">
	<g>
		<path d="M463.223,103.687c-1.303-0.31-131.104-31.853-199.76-100.621c-0.083-0.084-0.166-0.164-0.252-0.245    c-0.001-0.001-0.002-0.001-0.002-0.002c-0.002-0.002-0.003-0.003-0.005-0.005c-1.86-1.739-4.357-2.807-7.102-2.815    c-0.01,0-0.021,0-0.032,0h-0.136c-0.012,0-0.022,0-0.032,0c-2.746,0.008-5.242,1.076-7.102,2.815    c-0.002,0.002-0.003,0.004-0.005,0.005c-0.001,0.001-0.001,0.002-0.002,0.002c-0.085,0.08-0.169,0.161-0.252,0.245    c-68.57,68.681-198.458,100.31-199.76,100.621c-4.706,1.122-8.027,5.327-8.027,10.165v186.953    c0,36.554,10.997,67.452,33.617,94.461c20.923,24.98,49.107,43.197,73.919,57.72c51.105,29.916,102.174,57.487,102.684,57.762    c1.523,0.822,3.229,1.253,4.96,1.253h0.136c1.731,0,3.437-0.43,4.96-1.254c0.51-0.274,51.579-27.845,102.684-57.761    c24.812-14.524,52.997-32.74,73.919-57.72c22.621-27.009,33.617-57.907,33.617-94.461V113.852    C471.25,109.014,467.928,104.808,463.223,103.687z M450.352,300.805c0,71.281-50.171,106.619-97.196,134.147    c-41.611,24.359-83.211,47.159-97.155,54.748c-13.943-7.589-55.544-30.39-97.155-54.748    c-47.026-27.527-97.196-62.865-97.196-134.146V121.955C90.929,114.082,191.922,83.751,256,24.858    c64.078,58.893,165.072,89.224,194.351,97.097V300.805z" fill="#111111" data-original="#000000" style="" class=""/>
	</g>
</g>
<g xmlns="http://www.w3.org/2000/svg">
	<g>
		<path d="M349.097,162.906c-51.333-51.334-134.858-51.334-186.191,0c-42.508,42.507-50.869,108.302-20.33,159.999    c2.934,4.969,9.342,6.616,14.311,3.682c4.968-2.935,6.617-9.342,3.682-14.311c-25.687-43.483-18.65-98.831,17.113-134.593    c43.185-43.186,113.452-43.186,156.636,0c43.186,43.185,43.186,113.452,0,156.636c-35.763,35.763-91.11,42.8-134.593,17.113    c-4.966-2.935-11.375-1.287-14.311,3.682c-2.935,4.968-1.286,11.376,3.682,14.311c20.807,12.291,43.89,18.279,66.826,18.279    c34.053,0,67.773-13.209,93.174-38.608C400.43,297.764,400.43,214.239,349.097,162.906z" fill="#111111" data-original="#000000" style="" class=""/>
	</g>
</g>
<g xmlns="http://www.w3.org/2000/svg">
	<g>
		<path d="M177.683,334.319l-0.087-0.087c-4.081-4.08-10.698-4.081-14.778,0s-4.08,10.698,0,14.778l0.087,0.087    c2.04,2.041,4.715,3.06,7.388,3.06c2.674,0,5.349-1.02,7.39-3.06C181.764,345.016,181.764,338.4,177.683,334.319z" fill="#111111" data-original="#000000" style="" class=""/>
	</g>
</g>
<g xmlns="http://www.w3.org/2000/svg">
	<g>
		<path d="M339.161,201.592c-4.08-4.081-10.697-4.08-14.777,0l-86.649,86.652l-50.117-50.119c-4.08-4.08-10.697-4.079-14.777,0    c-4.08,4.08-4.08,10.697,0,14.777l57.506,57.507c1.959,1.959,4.617,3.06,7.388,3.06s5.429-1.101,7.388-3.06l94.038-94.041    C343.242,212.289,343.241,205.674,339.161,201.592z" fill="#111111" data-original="#000000" style="" class=""/>
	</g>
</g>
<g xmlns="http://www.w3.org/2000/svg">
</g>
<g xmlns="http://www.w3.org/2000/svg">
</g>
<g xmlns="http://www.w3.org/2000/svg">
</g>
<g xmlns="http://www.w3.org/2000/svg">
</g>
<g xmlns="http://www.w3.org/2000/svg">
</g>
<g xmlns="http://www.w3.org/2000/svg">
</g>
<g xmlns="http://www.w3.org/2000/svg">
</g>
<g xmlns="http://www.w3.org/2000/svg">
</g>
<g xmlns="http://www.w3.org/2000/svg">
</g>
<g xmlns="http://www.w3.org/2000/svg">
</g>
<g xmlns="http://www.w3.org/2000/svg">
</g>
<g xmlns="http://www.w3.org/2000/svg">
</g>
<g xmlns="http://www.w3.org/2000/svg">
</g>
<g xmlns="http://www.w3.org/2000/svg">
</g>
<g xmlns="http://www.w3.org/2000/svg">
</g>
</g></svg>
