<?xml version="1.0"?>
<svg xmlns="http://www.w3.org/2000/svg" xmlns:xlink="http://www.w3.org/1999/xlink" xmlns:svgjs="http://svgjs.com/svgjs" version="1.1" width="512" height="512" x="0" y="0" viewBox="0 0 512 512" style="enable-background:new 0 0 512 512" xml:space="preserve" class=""><g><g xmlns="http://www.w3.org/2000/svg"><g><path d="m231.977 254.277c-50.622 0-91.806 41.185-91.806 91.809 0 50.639 41.184 91.836 91.806 91.836 50.638 0 91.835-41.198 91.835-91.836 0-50.624-41.198-91.809-91.835-91.809zm0 163.645c-39.594 0-71.806-32.226-71.806-71.836 0-39.595 32.212-71.809 71.806-71.809 39.61 0 71.835 32.213 71.835 71.809 0 39.611-32.225 71.836-71.835 71.836z" fill="#111111" data-original="#000000" style="" class=""/><path d="m260.748 336.086h-18.771v-31.386c0-5.523-4.478-10-10-10s-10 4.477-10 10v41.386c0 5.523 4.478 10 10 10h28.771c5.522 0 10-4.477 10-10s-4.477-10-10-10z" fill="#111111" data-original="#000000" style="" class=""/><path d="m482.526 33.598h-280.596c-16.252 0-29.474 13.222-29.474 29.475v164.896c-11.922 6.032-22.807 13.824-32.326 23.021h-40.528c-5.522 0-10 4.477-10 10s4.478 10 10 10h23.548c-4.882 7.052-9.093 14.598-12.548 22.548h-47.539c-5.522 0-10 4.477-10 10s4.478 10 10 10h40.683c-1.853 7.295-3.093 14.831-3.673 22.548h-90.073c-5.522 0-10 4.477-10 10s4.478 10 10 10h90.068c.579 7.718 1.826 15.252 3.678 22.548h-40.683c-5.522 0-10 4.477-10 10s4.478 10 10 10h47.52c3.453 7.95 7.664 15.496 12.542 22.548h-23.523c-5.522 0-10 4.477-10 10s4.478 10 10 10h40.496c23.814 23.027 56.219 37.219 91.879 37.219 63.694 0 117.017-45.243 129.531-105.28h121.018c16.252 0 29.474-13.222 29.474-29.474v-280.574c0-16.253-13.222-29.475-29.474-29.475zm-176.63 20h72.663v90.668l-30.63-21.338c-3.436-2.394-7.999-2.393-11.435.001l-30.599 21.33v-90.661zm-73.919 404.804c-61.914 0-112.284-50.385-112.284-112.316 0-61.916 50.37-112.288 112.284-112.288 61.93 0 112.312 50.372 112.312 112.288 0 61.931-50.383 112.316-112.312 112.316zm260.023-114.754c0 5.224-4.25 9.474-9.474 9.474h-118.424c.123-2.33.188-4.676.188-7.036 0-72.944-59.355-132.288-132.312-132.288-13.76 0-27.035 2.115-39.521 6.031v-156.756c0-5.224 4.25-9.475 9.474-9.475h83.967v109.822c0 3.725 2.07 7.142 5.373 8.865 3.302 1.724 7.288 1.469 10.346-.662l40.601-28.302 40.628 28.304c1.709 1.191 3.708 1.795 5.717 1.795 1.583 0 3.172-.375 4.627-1.135 3.302-1.724 5.372-5.14 5.372-8.865v-109.822h83.967c5.224 0 9.474 4.25 9.474 9.475v280.575z" fill="#111111" data-original="#000000" style="" class=""/><path d="m41.662 270.989h17.036c5.522 0 10-4.477 10-10s-4.478-10-10-10h-17.036c-5.522 0-10 4.477-10 10s4.478 10 10 10z" fill="#111111" data-original="#000000" style="" class=""/><path d="m58.698 421.183h-17.036c-5.522 0-10 4.477-10 10s4.478 10 10 10h17.036c5.522 0 10-4.477 10-10s-4.477-10-10-10z" fill="#111111" data-original="#000000" style="" class=""/></g></g></g></svg>
