<?xml version="1.0" encoding="utf-8"?><svg version="1.1" id="Layer_1" xmlns="http://www.w3.org/2000/svg" xmlns:xlink="http://www.w3.org/1999/xlink" x="0px" y="0px" viewBox="0 0 122.88 96.22" style="enable-background:new 0 0 122.88 96.22" xml:space="preserve"><style type="text/css">.st0{fill-rule:evenodd;clip-rule:evenodd;}</style><g><path class="st0" d="M0,42.92h24.83v44.18H0V42.92L0,42.92L0,42.92z M53.55,17.25v-6.09c0.04-0.47-0.27-0.62-0.76-0.6h-1.18V8.92 h2.54V6.87h1.44v2.06h1.13V6.87h1.44v2.08c0.32,0.01,0.64,0.02,0.92,0.04c1.31,0.08,2.21,0.29,2.8,1.56 c0.16,0.35,0.25,0.73,0.25,1.11c0,0.49-0.12,0.78-0.36,1.17c-0.24,0.4-0.59,0.68-1.05,0.88c3.42,0.42,2.79,5.29-0.79,5.67 c-0.3,0.03-1.05,0.07-1.77,0.1v2.08h-1.44v-2.05h-1.13v2.05h-1.44v-2.05h-2.54l0.35-1.59h1.13C53.46,17.98,53.59,17.72,53.55,17.25 L53.55,17.25L53.55,17.25L53.55,17.25z M58.15,10.84v2.39C59.86,12.82,59.75,11.29,58.15,10.84L58.15,10.84L58.15,10.84z M58.15,14.7v2.96c0.18-0.02,0.34-0.04,0.47-0.06c1.73-0.32,2.13-2.35,0.06-2.81C58.53,14.75,58.35,14.72,58.15,14.7L58.15,14.7 L58.15,14.7L58.15,14.7z M56.71,17.71v-3.07h-0.59v3.07H56.71L56.71,17.71L56.71,17.71z M56.71,13.34v-2.61h-0.59v2.61H56.71 L56.71,13.34L56.71,13.34z M82.06,40.08V33.2c0.04-0.53-0.3-0.7-0.86-0.68h-1.33v-1.86h2.87v-2.33h1.62v2.33h1.27v-2.33h1.62v2.35 c0.36,0.01,0.72,0.03,1.04,0.05c1.48,0.09,2.5,0.33,3.16,1.77c0.18,0.4,0.28,0.83,0.28,1.25c0,0.56-0.13,0.88-0.4,1.33 c-0.27,0.45-0.66,0.76-1.18,0.99c3.87,0.48,3.16,5.99-0.89,6.41c-0.34,0.04-1.18,0.08-2,0.11v2.35h-1.62v-2.32h-1.27v2.32h-1.62 v-2.32h-2.87l0.4-1.79h1.28C81.96,40.9,82.1,40.61,82.06,40.08L82.06,40.08L82.06,40.08L82.06,40.08z M87.25,32.84v2.7 C89.19,35.07,89.06,33.34,87.25,32.84L87.25,32.84L87.25,32.84z M87.25,37.2v3.34c0.2-0.02,0.38-0.04,0.53-0.07 c1.96-0.37,2.41-2.66,0.07-3.17C87.68,37.26,87.48,37.22,87.25,37.2L87.25,37.2L87.25,37.2L87.25,37.2z M85.63,40.6v-3.46h-0.67 v3.46H85.63L85.63,40.6L85.63,40.6z M85.63,35.66V32.7h-0.67v2.95H85.63L85.63,35.66L85.63,35.66z M85.37,20.49 c9.01,0,16.32,7.3,16.32,16.32c0,9.01-7.3,16.32-16.32,16.32c-9.01,0-16.32-7.3-16.32-16.32C69.05,27.8,76.35,20.49,85.37,20.49 L85.37,20.49L85.37,20.49z M56.73,0c7.77,0,14.08,6.3,14.08,14.08c0,7.77-6.3,14.08-14.08,14.08c-7.77,0-14.08-6.3-14.08-14.08 C42.64,6.31,48.94,0,56.73,0L56.73,0L56.73,0z M85.37,23.7c7.23,0,13.1,5.86,13.1,13.1c0,7.23-5.86,13.1-13.1,13.1 c-7.23,0-13.1-5.86-13.1-13.1C72.27,29.56,78.14,23.7,85.37,23.7L85.37,23.7L85.37,23.7z M29.83,83.4V46.47h16.61 c7.04,1.26,14.08,5.08,21.12,9.51h12.9c5.84,0.35,8.9,6.27,3.22,10.16c-4.52,3.32-10.49,3.13-16.61,2.58 c-4.22-0.21-4.4,5.46,0,5.48c1.53,0.12,3.19-0.24,4.64-0.24c7.64-0.01,13.92-1.47,17.77-7.5l1.93-4.51l19.19-9.51 c9.6-3.16,16.42,6.88,9.35,13.87c-13.9,10.11-28.15,18.43-42.73,25.15c-10.59,6.44-21.18,6.22-31.76,0L29.83,83.4L29.83,83.4 L29.83,83.4z"/></g></svg>